<svg xmlns="http://www.w3.org/2000/svg" viewBox="0 0 64 64"><path fill="#010202" d="M56.6 44.6C52.8 41.3 50 32.4 50 22c0-7.9-5.1-14.6-12.1-17-.5-2.8-2.9-5-5.9-5-3 0-5.4 2.2-5.9 5-7 2.4-12.1 9.1-12.1 17 0 10.4-2.8 19.3-6.6 22.6C5.3 46.4 4 49.2 4 52c0 3.3 2.7 6 6 6h16c0 3.3 2.7 6 6 6s6-2.7 6-6h16c3.3 0 6-2.7 6-6 0-2.8-1.2-5.6-3.4-7.4zm-4.7 9.8H34.4c0 2.5.7 6-2.4 6-2.7 0-2.3-3.5-2.3-6H12.1c-2.5 0-4.5-1.1-4.5-3.6 0-2.1.9-3.1 2.5-4.5 2.9-2.5 7.5-9.5 7.5-24.9 0-5.9 5.5-12.9 12.1-12.7 0 0-.6-5 2.3-5 2.6 0 2.3 5 2.3 5 7.9.6 12.3 6.8 12.3 12.7 0 15 4.4 22.1 7.3 24.6 0 0 2.5 1.4 2.5 4.8 0 2.5-2 3.6-4.5 3.6z"/></svg>