<svg xmlns="http://www.w3.org/2000/svg" viewBox="0 0 64 64"><path fill="#010202" d="M34.9 5H18.1C10.7 5 3.6 10.7 3.6 17.2c0 6.7 5.1 12.2 12.8 12.2h1.5c-.5 1-.9 2-.9 3.1 0 1.9 1 3.4 2.3 4.6h-2.9C7.2 37.1 0 43.1 0 49.2c0 6 7.8 9.8 17.1 9.8 10.6 0 16.4-6 16.4-12.1 0-4.8-1.4-7.8-5.9-10.9-1.5-1.1-4.4-3.7-4.4-5.2 0-1.8.5-2.7 3.2-4.8 2.8-2.2 4.7-5.2 4.7-8.8 0-4.2-1.9-8.3-5.4-9.7H31L34.9 5zm-5.8 40.9c.1.6.2 1.1.2 1.7 0 4.9-3.1 8.7-12.2 8.7-6.4 0-11.1-4.1-11.1-9 0-4.8 5.8-8.8 12.2-8.7 1.5 0 2.9.3 4.2.7 3.5 2.5 6 3.9 6.7 6.6zM18.8 27.7c-4.3-.1-8.4-4.8-9.2-10.5-.7-5.7 2.1-10 6.5-9.9s8.4 4.7 9.2 10.3c.7 5.7-2.2 10.2-6.5 10.1zM52 17V5h-4v12H36v4h12v12h4V21h12v-4H52z"/></svg>