<svg xmlns="http://www.w3.org/2000/svg" viewBox="0 0 64 64"><g fill="#010202"><path d="M53.2 31.6c-1 0-1.8.8-1.8 1.8v25.2H38.3V48.3c0-1-.8-1.8-1.8-1.8H27c-1 0-1.9.8-1.9 1.8v10.3h-13V34.3c0-1-.8-1.8-1.9-1.8-1 0-1.8.8-1.8 1.8v26.2c0 1 .8 1.8 1.8 1.8H27c1 0 1.8-.8 1.8-1.8V50.2h5.8v10.3c0 1 .8 1.8 1.8 1.8h16.7c1 0 1.8-.8 1.8-1.8V33.4c.1-1-.7-1.8-1.7-1.8z"/><path d="M63.5 32.7L48.9 18V8c0-1-.8-1.8-1.9-1.8-1 0-1.8.8-1.8 1.8v6.3l-12-12.1c-.4-.4-.8-.6-1.2-.6-.5 0-.9.2-1.3.6L.6 32.4c-.7.7-.8 1.9 0 2.5.7.8 1.8.7 2.5 0L32 6.1l28.8 29.1c.3.3.7.5 1.3.5.5 0 .9-.2 1.3-.5.7-.6.8-1.8.1-2.5z"/></g></svg>