<svg xmlns="http://www.w3.org/2000/svg" viewBox="0 0 64 64"><g fill="#010202"><path d="M32 28.3c5.2 0 9.3-4.2 9.3-9.3S37.2 9.6 32 9.6s-9.3 4.2-9.3 9.3 4.2 9.4 9.3 9.4zm0-15.4c3.3 0 6 2.7 6 6.1 0 3.3-2.7 6-6 6s-6-2.7-6-6c0-3.4 2.7-6.1 6-6.1z"/><path d="M30.2 63c.3.6.9.9 1.5 1h.2c.6 0 1.2-.4 1.5-1 0 0 16.7-35.5 16.6-35.5 1-2.4 1.7-5 1.7-7.8C51.7 8.8 42.9 0 32 0S12.3 8.8 12.3 19.7c0 2.6.6 5 1.5 7.3M32 3.3c9 0 16.4 7.4 16.4 16.4 0 2.6-1 5.4-2.1 7.8L31.8 58.4 18.2 29l-1.1-2.3c-.9-2.2-1.6-4.5-1.6-7 .1-9.1 7.4-16.4 16.5-16.4z"/></g></svg>