<svg xmlns="http://www.w3.org/2000/svg" viewBox="0 0 64 64"><g fill="#010202"><path d="M0 64.1v-25V6h44.6c-.5.5-.9.9-1.3 1.4s-.8.8-1.3 1.2c-.1.1-.2.1-.4.1H3v52.5h47.3v-.5-.5-15.7-15.7c0-.3 0-.6.1-.8.1-.2.3-.5.5-.7.3-.3.7-.6 1-1 .3-.4.7-.7 1.1-1.1v38.9H0z"/><path d="M57.1 8.4c.3.4.7.7 1 1.1.3.4.7.8 1.1 1.2-.1 0-.2.1-.3.1-.1.1-.3.1-.4.2L43.4 26.1s-10.1 10-15.1 15c-.1.2-.4.3-.6.4-.2.1-.5.1-.7.2h-4.9V39v-2.7c0-.1.1-.3.2-.4.1-.1.2-.3.4-.4 3.8-3.8 7.6-7.7 11.5-11.5s7.6-7.6 11.5-11.5l3.9-3.9 3.9-3.9c.3.3.6.7.9 1s.6.7.9 1c-5 5-9.9 9.9-14.8 14.9s-9.9 9.9-14.9 14.9l.9.9.8.8 14.9-14.9s10-9.9 14.9-14.9zM61.3 8.3l-2.8-2.8-2.8-2.8c.4-.3.7-.7 1.1-1.1.4-.4.8-.8 1.2-1.1.5-.4 1-.5 1.6-.5s1.1.3 1.5.7c.4.4.8.7 1.1 1.1l1.1 1.1c.4.5.6 1 .7 1.6s-.2 1.2-.6 1.6c-.3.4-.7.8-1.1 1.1-.3.4-.7.8-1 1.1z"/></g></svg>