<svg xmlns="http://www.w3.org/2000/svg" viewBox="0 0 64 64"><path fill="#010202" d="M35.9 64h-7.7c-1.5 0-2.8-1.2-3-2.7l-.8-4.8c-1.5-.5-2.9-1.1-4.3-1.8l-4 2.8c-.5.4-1.1.6-1.8.6-.8 0-1.6-.3-2.1-.9l-5.5-5.5c-1.1-1.1-1.2-2.8-.2-4L9.2 44c-.7-1.4-1.3-2.8-1.8-4.3l-4.8-.8c-1.5-.2-2.6-1.4-2.6-3v-7.7c0-1.5 1.2-2.8 2.7-3l4.8-.8c.5-1.5 1.1-2.9 1.8-4.3l-2.8-4c-.9-1.1-.8-2.9.2-3.9l5.5-5.5c1.1-1 2.9-1.1 4-.2L20 9.2c1.4-.7 2.8-1.3 4.3-1.8l.8-4.8c.1-1.5 1.4-2.6 3-2.6h7.7c1.5 0 2.8 1.2 3 2.7l.8 4.8c1.5.5 2.9 1.1 4.3 1.8l4-2.9c.5-.4 1.2-.6 1.8-.6.8 0 1.5.3 2.1.9l5.5 5.5c1.1 1.1 1.2 2.8.2 4L54.8 20c.7 1.4 1.3 2.8 1.8 4.3l4.8.8c1.5.1 2.6 1.4 2.6 3v7.7c0 1.5-1.2 2.8-2.7 3l-4.8.8c-.5 1.5-1.1 3-1.8 4.3l2.8 4c.9 1.1.8 2.9-.3 4l-5.5 5.5c-1 1-2.8 1.2-4 .2L44 54.8c-1.4.7-2.8 1.3-4.3 1.8l-.8 4.8c-.2 1.4-1.5 2.6-3 2.6zM20.7 51.2c.2 0 .3 0 .5.1 1.5.8 3.1 1.5 4.8 2 .4.1.6.4.7.8l.9 5.1c0 .5.4.8.8.8h7.3c.4 0 .8-.3.8-.7l.9-5.2c.1-.4.3-.7.7-.8 1.7-.5 3.3-1.1 4.8-2 .3-.2.8-.2 1.1.1l4.2 3c.4.3.9.3 1.2 0l5.1-5.1c.3-.3.3-.8 0-1.1l-3.1-4.3c-.2-.3-.3-.7-.1-1.1.8-1.5 1.5-3.1 2-4.8.1-.4.4-.6.8-.7l5.1-.9c.5 0 .8-.4.8-.8v-7.3c0-.4-.3-.8-.7-.8l-5.2-.9c-.4-.1-.7-.3-.8-.7-.5-1.7-1.1-3.3-2-4.8-.2-.3-.2-.8.1-1.1l3-4.2c.3-.4.3-.9 0-1.1l-5.1-5.1c-.3-.3-.8-.3-1.1-.1l-4.3 3.1c-.3.2-.7.3-1.1.1-1.5-.8-3.1-1.5-4.8-2-.4-.1-.6-.4-.7-.8l-.8-5.1c0-.5-.4-.8-.8-.8h-7.3c-.4 0-.8.3-.8.7l-.9 5.3c-.1.4-.3.7-.7.8-1.7.5-3.3 1.1-4.8 2-.3.2-.8.2-1.1-.1l-4.2-3c-.4-.3-.9-.3-1.1 0l-5.1 5.1c-.3.3-.3.8-.1 1.1l3.1 4.3c.2.3.2.7.1 1.1-.9 1.5-1.5 3.1-2 4.8-.1.4-.4.6-.8.7l-5.1.9c-.6-.1-.9.3-.9.7v7.3c0 .4.3.8.7.8l5.2.9c.4.1.7.3.8.7.5 1.7 1.1 3.3 2 4.8.2.3.2.8-.1 1l-3 4.2c-.3.4-.3.8 0 1.2l5.1 5.1c.3.3.8.3 1.1 0l4.3-3.1c.2-.1.4-.1.6-.1zM32 44.7c-7 0-12.7-5.7-12.7-12.7 0-7 5.7-12.7 12.7-12.7 7 0 12.7 5.7 12.7 12.7 0 7-5.7 12.7-12.7 12.7zm0-22c-5.1 0-9.3 4.2-9.3 9.3s4.2 9.3 9.3 9.3 9.3-4.2 9.3-9.3c0-5.1-4.2-9.3-9.3-9.3z"/></svg>