<svg xmlns="http://www.w3.org/2000/svg" viewBox="0 0 64 64"><path fill="#010202" d="M64 12.1c-2.3 1.1-4.9 1.8-7.5 2.1 2.7-1.6 4.8-4.2 5.8-7.3-2.5 1.5-5.3 2.6-8.3 3.2C51.5 7.6 48.1 6 44.3 6 37 6 31.2 11.9 31.2 19.1c0 1 .1 2 .3 3-10.9-.5-20.5-5.8-27-13.7-1.1 1.9-1.8 4.2-1.8 6.6 0 4.5 2.3 8.6 5.8 10.9-2.2-.1-4.2-.7-6-1.6v.2C2.5 30.9 7 36.2 13 37.4c-1.1.3-2.3.5-3.5.5-.9 0-1.7-.1-2.5-.2 1.7 5.2 6.5 9 12.3 9.1-4.5 3.5-10.1 5.6-16.3 5.6-1.1 0-2.1-.1-3.1-.2C5.8 55.8 12.7 58 20.1 58c24.2 0 37.4-20 37.4-37.4v-1.7c2.5-1.8 4.8-4.1 6.5-6.8z"/></svg>