<svg xmlns="http://www.w3.org/2000/svg" viewBox="0 0 64 64"><path fill="#010202" d="M32.6 0h-1.1C14.1 0 0 14.1 0 31.4v1.2C0 49.9 14.1 64 31.4 64h1.2C49.9 64 64 49.9 64 32.6v-1.1C64 14.1 49.9 0 32.6 0zM12.9 9.1l-1.1.6c.5.1 2.2.9 2.3 1.3.1.1-.1.4-.3.7-1.8 2.4-4.6 4.6-6 4.9-.6.1-1 .1-1.3.1 1.7-2.9 3.9-5.5 6.4-7.6zM2.3 34c0-.7-.1-1.3-.1-2s.1-1.4.1-2.1c1.1.3 2.2.8 2.3 1L3.8 32c-.5.7-.5.7-1.2 1.6l-.3.4zM32 61.8C17.2 61.8 5 51 2.6 36.9l.2.2 1.6-2c.7-.9.7-.9 1.3-1.7l.8-1.2c.5-.6.6-1.4.3-2.1-.6-1.6-3.1-2.4-4.3-2.7.5-3 1.4-5.9 2.7-8.6.3.2.7.2 1.3.2.4 0 1 0 1.7-.1 2.3-.4 5.6-3.3 7.5-5.8.9-1.2.8-2.3.6-2.9-.4-1.1-1.4-1.7-2.2-2.1 5-3.7 11.1-5.9 17.8-5.9 16.5 0 29.8 13.4 29.8 29.8 0 1.7-.2 3.4-.5 5-.3.1-.9.3-1.7.6v-.1c-.1-.5-.2-1-.5-1.6-.8-2-2.8-2.8-5.2-3.8-1.7-.7-7.4-1.9-10.3-.3-1 .6-1.7 1.4-1.9 2.5-.3 1.4 0 2.4.8 3 1.3 1.1 3.3.5 4.9 0-.1 1-.8 3-2.5 4.4-3.5 3-6.2 12.8-5.7 16.7v.2c-.8-.1-3-1.1-6.6-3.8-1-.8-1.5-4.1-1.9-6.8-.6-3.9-1.1-7.3-3.1-8.2-1-.5-2.2-.7-3.5-.9-3.6-.6-6.3-1.3-7-4.5-.4-1.8-.2-3.3.6-4.5 1.3-2 4-2.6 5.4-2.9 2.5-.4 6.3 1.2 8.5 2.2 1 .4 1.7.8 2.2.9 3.3.5 6.7-2.2 7.8-3.7.2-.3.8-.8.6-1.6 1-.4 1.8-1.4 2.1-2.4.5-1.4.4-2.6-.4-3.3-.6-.5-1.7-.9-3.5.1-2.9 1.5-3.5 2.8-3.9 4-.1.4-.2.5-.2.5-.1 0-.8-.1-3-2.7-2.5-3-4.6-2.1-5.9-1.5-1.3.7-.6 2.4-2.3 2.5-1.2-.5.8-1.4-.1-2.3-.9-.9 1.3-1.3 2.3-1.3 1.1 0 2.3-.8 2.5-1.9.3.1.8.4 1.3.9.8.8 1.6 1.1 2.5 1 1.3-.1 2.3-1.4 3.1-2.5 1.1-1.6.6-2.7.3-3.2-.5-.8-1.5-1.1-2.5-1.1.3-.3.7-.7 1.3-1.2C37.5 8.8 38.9 8 40 8.3c.8.5 1.8.7 3.5.7 3 0 6.8-3.7 5.4-3l-2.6-.6S45 6.9 43.1 6.9c-.7 0-4-2.4-9 1.7-2.4 2-3.2 3.5-2.6 4.7.1.3.8 1.2 2.3.8.2-.1.4-.1.5-.1.3 0 .5.1.6.1 0 .1 0 .3-.3.6-1 1.4-1.3 1.5-1.4 1.5 0 0-.2 0-.6-.4-1.6-1.6-3.5-2.1-4.7-1.3-.4.3-.6.8-.6 1.4-.1.1-.4.2-.8.3-1.2.3-1.9.3-2.4.3s-1.1-.1-1.6.6-.1 1.3 0 1.5c.2.4.5.8.9 1.2 0 0 .1.1.1.2-1 .4-1.9.9-1.9 1.9 0 1.3 1.7 1.7 2.7 2 1.1.3 1.9.2 2.6-.2.8-.5 1-1.4 1.1-2v-.2c.9-.3 2.1-.2 3.3 1.2 2 2.4 3.4 3.5 4.6 3.5.7 0 1.3-.1 1.8-.6.6-.5.8-1.1 1-1.6.2-.6.4-1.4 2.8-2.6.4-.2.6-.3.8-.3 0 .5-.5 1.5-.8 1.6-.4 0-1.4 0-1.8.8-.3.5-.2 1.1 0 1.5-.8 1.7-3.3 3.4-5.3 3-.3-.1-1-.4-1.8-.7-2.6-1.2-6.6-2.9-9.9-2.4-3.2.5-5.7 1.9-7 3.9-1.2 1.8-1.5 3.9-.9 6.4 1.1 5 5.6 5.8 8.9 6.4 1.1.2 2.2.4 2.9.7.9.4 1.4 4 1.8 6.4.5 3.6 1 7 2.8 8.4 4.3 3.2 6.6 4.1 7.9 4.2-2.3.2-4.7.5-7.1.5zm8.8-1.3c.4-.3 1-1 .8-2.4-.4-3.3 2-12.1 4.9-14.6 2.8-2.4 4-6.3 3-8-.4-.8-1.3-1.1-2.2-.8l-.4.1c-1.6.6-2.5.8-2.8.6 0 0-.1-.2 0-.8 0-.3.2-.6.7-.8 2-1.1 6.7-.3 8.5.4 2.2.9 3.3 1.4 3.8 2.5.2.4.3.8.3 1.2.2.7.3 1.5 1.1 2s1.7.1 1.9 0c.1 0 .2-.1.3-.1-2.6 9.9-10.2 17.7-19.9 20.7z"/></svg>