<svg xmlns="http://www.w3.org/2000/svg" viewBox="0 0 64 64"><path fill="#010202" d="M39.3 44.4V52c0 1.6-.5 2.4-1.4 2.4-.5 0-1.1-.3-1.6-.8V42.8c.5-.5 1.1-.8 1.6-.8.9 0 1.4.8 1.4 2.4zm12 .1v1.6h-3.2v-1.6c0-1.6.5-2.4 1.6-2.4 1.1-.1 1.6.7 1.6 2.4zm-34.5-7.8h3.8v-3.4H9.5v3.4h3.8V57h3.6V36.7h-.1zM27.1 57h3.2V39.4h-3.2v13.5c-.7 1-1.4 1.5-2 1.5-.4 0-.7-.3-.8-.8V39.3h-3.2v14c0 1.2.1 2 .3 2.6.3.9 1 1.3 2.1 1.3s2.4-.7 3.6-2.2v2zm15.3-5.3v-7c0-1.7-.1-2.9-.3-3.5-.4-1.3-1.3-2-2.5-2s-2.3.7-3.3 1.9v-7.8h-3.2V57h3.2v-1.7c1.1 1.3 2.2 2 3.3 2 1.3 0 2.1-.7 2.5-2 .2-.7.3-1.8.3-3.6zm12.1-.3v-.5h-3.3c0 1.2 0 1.9-.1 2.2-.2.9-.6 1.3-1.4 1.3-1.1 0-1.6-.8-1.6-2.5v-3.1h6.4v-3.7c0-1.9-.3-3.3-1-4.2-.9-1.2-2.2-1.8-3.8-1.8-1.6 0-2.9.6-3.8 1.8-.7.9-1 2.3-1 4.2v6.2c0 1.9.3 3.3 1 4.1.9 1.2 2.2 1.8 3.9 1.8 1.7 0 3-.6 3.9-1.9.4-.7.7-1.3.8-1.9v-2zM32.8 18.8v-7.5c0-1.6-.5-2.5-1.5-2.5s-1.5.8-1.5 2.5v7.5c0 1.7.5 2.5 1.5 2.5s1.5-.9 1.5-2.5zm25.7 26.8c0 5.6-.3 9.7-.9 12.5-.3 1.4-1 2.6-2.1 3.5-1 1-2.3 1.5-3.6 1.6-4.4.6-11.1.8-19.9.8s-15.4-.3-19.8-.8c-1.4-.1-2.6-.7-3.7-1.6s-1.7-2.1-2.1-3.5c-.6-2.7-.9-6.8-.9-12.5 0-5.6.3-9.7.9-12.5.3-1.4 1-2.6 2.1-3.5s2.3-1.5 3.7-1.7c4.4-.5 10.9-.7 19.8-.7s15.4.2 19.8.7c1.4.2 2.6.7 3.7 1.7s1.7 2.1 2 3.5c.7 2.6 1 6.8 1 12.5zM22.8 0h3.6l-4.3 14.3V24h-3.6v-9.7c-.3-1.8-1.1-4.3-2.2-7.6-.8-2.5-1.6-4.7-2.2-6.7h3.8l2.5 9.4L22.8 0zM36 11.9v6.3c0 1.9-.3 3.3-1 4.2-.9 1.2-2.2 1.8-3.8 1.8-1.6 0-2.9-.6-3.8-1.8-.7-.9-1-2.3-1-4.2v-6.3c0-1.9.3-3.3 1-4.2.9-1.2 2.1-1.8 3.8-1.8 1.6 0 2.9.6 3.8 1.8.7.9 1 2.3 1 4.2zm12-5.8v17.8h-3.3v-2c-1.3 1.5-2.5 2.2-3.7 2.2-1.1 0-1.8-.4-2.1-1.3-.2-.6-.3-1.5-.3-2.7v-14h3.3v14.4c.1.5.3.8.8.8.7 0 1.3-.5 2-1.5V6.1H48z"/></svg>