<?xml version="1.0" encoding="utf-8"?>
<!-- Generator: Adobe Illustrator 18.1.1, SVG Export Plug-In . SVG Version: 6.00 Build 0)  -->
<svg version="1.1" id="Capa_1" xmlns="http://www.w3.org/2000/svg" xmlns:xlink="http://www.w3.org/1999/xlink" x="0px" y="0px"
	 width="64px" height="64px" viewBox="0 0 64 64" enable-background="new 0 0 64 64" xml:space="preserve">
<path fill="#010202" d="M56.6,44.6C52.8,41.3,50,32.4,50,22c0-7.9-5.1-14.6-12.1-17C37.4,2.2,35,0,32,0c-3,0-5.4,2.2-5.9,5
	C19.1,7.4,14,14.1,14,22c0,10.4-2.8,19.3-6.6,22.6C5.3,46.4,4,49.2,4,52c0,3.3,2.7,6,6,6h16c0,3.3,2.7,6,6,6c3.3,0,6-2.7,6-6h16
	c3.3,0,6-2.7,6-6C60,49.2,58.8,46.4,56.6,44.6z M51.9,54.4H34.4c0,2.5,0.7,6-2.4,6c-2.7,0-2.3-3.5-2.3-6H12.1
	c-2.5,0-4.5-1.1-4.5-3.6c0-2.1,0.9-3.1,2.5-4.5c2.9-2.5,7.5-9.5,7.5-24.9c0-5.9,5.5-12.9,12.1-12.7c0,0-0.6-5,2.3-5
	c2.6,0,2.3,5,2.3,5c7.9,0.6,12.3,6.8,12.3,12.7c0,15,4.4,22.1,7.3,24.6c0,0,2.5,1.4,2.5,4.8C56.4,53.3,54.4,54.4,51.9,54.4z"/>
</svg>
