<?xml version="1.0" encoding="utf-8"?>
<!-- Generator: Adobe Illustrator 18.1.1, SVG Export Plug-In . SVG Version: 6.00 Build 0)  -->
<svg version="1.1" id="Capa_1" xmlns="http://www.w3.org/2000/svg" xmlns:xlink="http://www.w3.org/1999/xlink" x="0px" y="0px"
	 width="64px" height="64px" viewBox="0 0 64 64" enable-background="new 0 0 64 64" xml:space="preserve">
<path fill="#010202" d="M35.5,32L63.3,4.2c1-1,1-2.5,0-3.5s-2.5-1-3.5,0L32,28.5L4.2,0.7c-1-1-2.5-1-3.5,0s-1,2.5,0,3.5L28.5,32
	L0.7,59.8c-1,1-1,2.5,0,3.5s2.5,1,3.5,0L32,35.5l27.8,27.8c1,1,2.5,1,3.5,0s1-2.5,0-3.5L35.5,32z"/>
</svg>
