<?xml version="1.0" encoding="utf-8"?>
<!-- Generator: Adobe Illustrator 18.1.1, SVG Export Plug-In . SVG Version: 6.00 Build 0)  -->
<svg version="1.1" id="Capa_1" xmlns="http://www.w3.org/2000/svg" xmlns:xlink="http://www.w3.org/1999/xlink" x="0px" y="0px"
	 width="64px" height="64px" viewBox="0 0 64 64" enable-background="new 0 0 64 64" xml:space="preserve">
<g>
	<g>
		<path fill="#010202" d="M32.1,56.2c-10-8.7-24.1-20.9-25.2-22c-1.5-1.5-2.6-3.2-3.4-5c-0.8-1.9-1.2-4-1.2-6.2
			c0-2.1,0.4-4.2,1.2-6.2c0.8-1.9,2-3.6,3.4-5c1.5-1.5,3.2-2.6,5.1-3.4c1.9-0.8,4-1.2,6.2-1.2c2.1,0,4.1,0.5,6,1.5
			c1.9,1,3.6,2.3,5.1,4l0.7,0.8c0.2,0.2,0.3,0.4,0.5,0.7l1.7,2.3l1.7-2.3c0.2-0.3,0.9-1.1,1.2-1.5c1.5-1.7,3.2-3.1,5.1-4
			c1.9-1,4-1.5,6-1.5c2.1,0,4.2,0.4,6.2,1.2c1.9,0.8,3.6,1.9,5,3.4c1.5,1.5,2.6,3.2,3.4,5c0.8,1.9,1.2,4,1.2,6.2
			c0,2.1-0.4,4.2-1.2,6.2c-0.8,1.9-2,3.6-3.4,5C56.2,35.3,42.1,47.5,32.1,56.2z"/>
		<path fill="#E5201E" d="M46.1,9.3c1.8,0,3.6,0.4,5.3,1.1c1.6,0.7,3.1,1.7,4.4,3c1.3,1.3,2.3,2.7,3,4.4c0.7,1.7,1.1,3.5,1.1,5.3
			c0,1.8-0.4,3.7-1.1,5.3C58,30,57,31.4,55.8,32.7l0,0l0,0c-1.2,1.2-14.1,12.4-23.7,20.7C22.5,45.1,9.4,33.8,8.3,32.7
			c-1.3-1.3-2.3-2.7-3-4.4c-0.7-1.7-1.1-3.5-1.1-5.3c0-1.8,0.4-3.7,1.1-5.3c0.7-1.7,1.7-3.1,3-4.4c1.3-1.3,2.7-2.3,4.4-3
			c1.7-0.7,3.5-1.1,5.3-1.1c1.7,0,3.5,0.4,5,1.3c1.7,0.9,3.1,2,4.4,3.5l0.6,0.7c0.1,0.2,0.3,0.4,0.4,0.6l3.4,4.6l3.5-4.6
			c0.3-0.4,0.8-1.1,1.1-1.4c1.3-1.5,2.8-2.7,4.4-3.5C42.6,9.7,44.3,9.3,46.1,9.3 M46.1,5c-2.5,0-4.8,0.6-7,1.7
			c-2.2,1.1-4.1,2.7-5.7,4.5c-0.4,0.5-1.3,1.6-1.3,1.6c-0.7-0.9-1.3-1.6-1.3-1.6c0,0,0,0,0,0c-1.6-1.9-3.6-3.4-5.7-4.5
			C22.9,5.6,20.5,5,18,5s-4.8,0.5-7,1.4s-4.1,2.2-5.7,3.9c-1.6,1.6-2.9,3.6-3.9,5.7C0.6,18.1,0,20.5,0,23s0.5,4.8,1.4,7
			c0.9,2.2,2.2,4.1,3.9,5.7C6.9,37.3,32.1,59,32.1,59s25.1-21.7,26.7-23.3c1.6-1.6,2.9-3.6,3.9-5.7c0.9-2.1,1.4-4.5,1.4-7
			s-0.5-4.8-1.4-7s-2.2-4.1-3.9-5.7s-3.6-2.9-5.7-3.9C50.9,5.5,48.5,5,46.1,5L46.1,5z"/>
	</g>
</g>
</svg>
