<?xml version="1.0" encoding="utf-8"?>
<!-- Generator: Adobe Illustrator 18.1.1, SVG Export Plug-In . SVG Version: 6.00 Build 0)  -->
<svg version="1.1" id="Capa_1" xmlns="http://www.w3.org/2000/svg" xmlns:xlink="http://www.w3.org/1999/xlink" x="0px" y="0px"
	 width="64px" height="64px" viewBox="0 0 64 64" enable-background="new 0 0 64 64" xml:space="preserve">
<g>
	<path fill="#010202" d="M34.9,5c0,0-12.6,0-16.8,0C10.7,5,3.6,10.7,3.6,17.2c0,6.7,5.1,12.2,12.8,12.2c0.5,0,1,0,1.5,0
		c-0.5,1-0.9,2-0.9,3.1c0,1.9,1,3.4,2.3,4.6c-1,0-1.9,0-2.9,0C7.2,37.1,0,43.1,0,49.2c0,6,7.8,9.8,17.1,9.8c10.6,0,16.4-6,16.4-12.1
		c0-4.8-1.4-7.8-5.9-10.9c-1.5-1.1-4.4-3.7-4.4-5.2c0-1.8,0.5-2.7,3.2-4.8c2.8-2.2,4.7-5.2,4.7-8.8c0-4.2-1.9-8.3-5.4-9.7h5.3
		L34.9,5L34.9,5L34.9,5z M29.1,45.9c0.1,0.6,0.2,1.1,0.2,1.7c0,4.9-3.1,8.7-12.2,8.7c-6.4,0-11.1-4.1-11.1-9c0-4.8,5.8-8.8,12.2-8.7
		c1.5,0,2.9,0.3,4.2,0.7C25.9,41.8,28.4,43.2,29.1,45.9L29.1,45.9z M18.8,27.7c-4.3-0.1-8.4-4.8-9.2-10.5c-0.7-5.7,2.1-10,6.5-9.9
		s8.4,4.7,9.2,10.3C26,23.3,23.1,27.8,18.8,27.7z M52,17V5h-4v12H36v4h12v12h4V21h12v-4C64,17,52,17,52,17z"/>
</g>
</svg>
