<?xml version="1.0" encoding="utf-8"?>
<!-- Generator: Adobe Illustrator 18.1.1, SVG Export Plug-In . SVG Version: 6.00 Build 0)  -->
<svg version="1.1" id="Capa_1" xmlns="http://www.w3.org/2000/svg" xmlns:xlink="http://www.w3.org/1999/xlink" x="0px" y="0px"
	 width="64px" height="64px" viewBox="0 0 64 64" enable-background="new 0 0 64 64" xml:space="preserve">
<g>
	<path fill="#010202" d="M53.2,31.6c-1,0-1.8,0.8-1.8,1.8v25.2H38.3V48.3c0-1-0.8-1.8-1.8-1.8H27c-1,0-1.9,0.8-1.9,1.8v10.3h-13
		V34.3c0-1-0.8-1.8-1.9-1.8c-1,0-1.8,0.8-1.8,1.8v26.2c0,1,0.8,1.8,1.8,1.8H27c1,0,1.8-0.8,1.8-1.8V50.2h5.8v10.3
		c0,1,0.8,1.8,1.8,1.8h16.7c1,0,1.8-0.8,1.8-1.8V33.4C55,32.4,54.2,31.6,53.2,31.6L53.2,31.6z"/>
	<path fill="#010202" d="M63.5,32.7L48.9,18v-10c0-1-0.8-1.8-1.9-1.8c-1,0-1.8,0.8-1.8,1.8v6.3l-12-12.1c-0.4-0.4-0.8-0.6-1.2-0.6
		c-0.5,0-0.9,0.2-1.3,0.6L0.6,32.4c-0.7,0.7-0.8,1.9,0,2.5c0.7,0.8,1.8,0.7,2.5,0L32,6.1l28.8,29.1c0.3,0.3,0.7,0.5,1.3,0.5
		c0.5,0,0.9-0.2,1.3-0.5C64.1,34.6,64.2,33.4,63.5,32.7L63.5,32.7z"/>
</g>
</svg>
