<?xml version="1.0" encoding="utf-8"?>
<!-- Generator: Adobe Illustrator 18.1.1, SVG Export Plug-In . SVG Version: 6.00 Build 0)  -->
<svg version="1.1" id="Capa_1" xmlns="http://www.w3.org/2000/svg" xmlns:xlink="http://www.w3.org/1999/xlink" x="0px" y="0px"
	 width="64px" height="64px" viewBox="0 0 64 64" enable-background="new 0 0 64 64" xml:space="preserve">
<g>
	<path fill="#010202" d="M32,28.3c5.2,0,9.3-4.2,9.3-9.3S37.2,9.6,32,9.6s-9.3,4.2-9.3,9.3S26.9,28.3,32,28.3z M32,12.9
		c3.3,0,6,2.7,6,6.1c0,3.3-2.7,6-6,6c-3.3,0-6-2.7-6-6C26,15.6,28.7,12.9,32,12.9z"/>
	<path fill="#010202" d="M30.2,63c0.3,0.6,0.9,0.9,1.5,1c0,0,0.1,0,0.1,0s0.1,0,0.1,0c0.6,0,1.2-0.4,1.5-1c0,0,16.7-35.5,16.6-35.5
		c1-2.4,1.7-5,1.7-7.8C51.7,8.8,42.9,0,32,0S12.3,8.8,12.3,19.7c0,2.6,0.6,5,1.5,7.3 M32,3.3c9,0,16.4,7.4,16.4,16.4
		c0,2.6-1,5.4-2.1,7.8l0,0L31.8,58.4L18.2,29l0,0c0,0,0,0,0,0l-1.1-2.3c-0.9-2.2-1.6-4.5-1.6-7C15.6,10.6,22.9,3.3,32,3.3z"/>
</g>
</svg>
