<?xml version="1.0" encoding="utf-8"?>
<!-- Generator: Adobe Illustrator 18.1.1, SVG Export Plug-In . SVG Version: 6.00 Build 0)  -->
<svg version="1.1" id="Capa_1" xmlns="http://www.w3.org/2000/svg" xmlns:xlink="http://www.w3.org/1999/xlink" x="0px" y="0px"
	 width="64px" height="64px" viewBox="0 0 64 64" enable-background="new 0 0 64 64" xml:space="preserve">
<g>
	<path fill="#010202" d="M0,17v-3.2c0,0,0-0.1,0.1-0.1h63.8c0,0,0.1,0,0.1,0.1V17c0,0,0,0.1-0.1,0.1L0,17C0,17,0,17,0,17z"/>
	<path fill="#010202" d="M0,33.5v-3.2c0,0,0-0.1,0.1-0.1h63.8c0,0,0.1,0,0.1,0.1v3.2c0,0,0,0.1-0.1,0.1L0,33.5C0,33.6,0,33.6,0,33.5
		z"/>
	<path fill="#010202" d="M0,50.2V47c0,0,0-0.1,0.1-0.1h63.8c0,0,0.1,0,0.1,0.1v3.2c0,0,0,0.1-0.1,0.1L0,50.2C0,50.3,0,50.3,0,50.2z"
		/>
</g>
</svg>
