<?xml version="1.0" encoding="utf-8"?>
<!-- Generator: Adobe Illustrator 18.1.1, SVG Export Plug-In . SVG Version: 6.00 Build 0)  -->
<svg version="1.1" id="Capa_1" xmlns="http://www.w3.org/2000/svg" xmlns:xlink="http://www.w3.org/1999/xlink" x="0px" y="0px"
	 width="64px" height="64px" viewBox="0 0 64 64" enable-background="new 0 0 64 64" xml:space="preserve">
<g>
	<g>
		<path fill="#010202" d="M0,64.1c0-8.3,0-16.7,0-25S0,14.3,0,6c6.9,0,13.9,0,20.8,0s16.8,0,23.8,0c-0.5,0.5-0.9,0.9-1.3,1.4
			s-0.8,0.8-1.3,1.2c-0.1,0.1-0.2,0.1-0.4,0.1c-0.2,0-0.3,0-0.5,0c-5.7,0-14.3,0-20,0s-11.4,0-17.1,0c-0.2,0-0.3,0-0.5,0
			c-0.2,0-0.4,0-0.5,0c0,7.4,0,22.9,0,30.3s0,14.8,0,22.2c7.9,0,15.7,0,23.6,0s15.8,0,23.7,0c0-0.2,0-0.3,0-0.5s0-0.3,0-0.5
			c0-5.3,0-10.5,0-15.7s0-10.5,0-15.7c0-0.3,0-0.6,0.1-0.8c0.1-0.2,0.3-0.5,0.5-0.7c0.3-0.3,0.7-0.6,1-1c0.3-0.4,0.7-0.7,1.1-1.1
			c0,6.5,0,13,0,19.5s0,12.9,0,19.4c-8.8,0-17.6,0-26.4,0S8.8,64.1,0,64.1z"/>
		<path fill="#010202" d="M57.1,8.4c0.3,0.4,0.7,0.7,1,1.1c0.3,0.4,0.7,0.8,1.1,1.2c-0.1,0-0.2,0.1-0.3,0.1
			c-0.1,0.1-0.3,0.1-0.4,0.2c-5,5-10,10-15.1,15.1s-10.1,10-15.1,15c-0.1,0.2-0.4,0.3-0.6,0.4c-0.2,0.1-0.5,0.1-0.7,0.2
			c-0.8,0-1.6,0-2.4,0s-1.6,0-2.5,0c0-0.9,0-1.8,0-2.7c0-0.9,0-1.8,0-2.7c0-0.1,0.1-0.3,0.2-0.4c0.1-0.1,0.2-0.3,0.4-0.4
			c3.8-3.8,7.6-7.7,11.5-11.5s7.6-7.6,11.5-11.5c1.3-1.3,2.6-2.6,3.9-3.9s2.6-2.6,3.9-3.9c0.3,0.3,0.6,0.7,0.9,1s0.6,0.7,0.9,1
			c-5,5-9.9,9.9-14.8,14.9s-9.9,9.9-14.9,14.9c0.3,0.3,0.6,0.6,0.9,0.9c0.3,0.3,0.5,0.5,0.8,0.8c5-5,9.9-9.9,14.9-14.9
			S52.2,13.4,57.1,8.4z"/>
		<path fill="#010202" d="M61.3,8.3c-0.9-0.9-1.9-1.9-2.8-2.8s-1.9-1.9-2.8-2.8c0.4-0.3,0.7-0.7,1.1-1.1c0.4-0.4,0.8-0.8,1.2-1.1
			c0.5-0.4,1-0.5,1.6-0.5s1.1,0.3,1.5,0.7c0.4,0.4,0.8,0.7,1.1,1.1c0.4,0.4,0.7,0.7,1.1,1.1c0.4,0.5,0.6,1,0.7,1.6s-0.2,1.2-0.6,1.6
			c-0.3,0.4-0.7,0.8-1.1,1.1C62,7.6,61.6,8,61.3,8.3z"/>
	</g>
</g>
</svg>
