<?xml version="1.0" encoding="utf-8"?>
<!-- Generator: Adobe Illustrator 18.1.1, SVG Export Plug-In . SVG Version: 6.00 Build 0)  -->
<svg version="1.1" id="Capa_1" xmlns="http://www.w3.org/2000/svg" xmlns:xlink="http://www.w3.org/1999/xlink" x="0px" y="0px"
	 width="64px" height="64px" viewBox="0 0 64 64" enable-background="new 0 0 64 64" xml:space="preserve">
<g>
	<path fill="#010202" d="M32,0C14.3,0,0,14.3,0,32s14.3,32,32,32s32-14.3,32-32S49.7,0,32,0z M35.1,42.8c-2.9-0.2-4.1-1.7-6.4-3
		c-1.3,6.6-2.8,12.9-7.3,16.2c-1.4-9.9,2-17.4,3.7-25.3c-2.7-4.6,0.3-13.9,6.1-11.6c7.1,2.8-6.1,17.1,2.8,18.9
		c9.3,1.9,13.1-16.1,7.3-22C32.9,7.5,17,15.7,18.9,27.8c0.5,3,3.5,3.9,1.2,7.9c-5.3-1.2-6.9-5.4-6.7-11c0.3-9.2,8.2-15.6,16.2-16.5
		c10-1.1,19.5,3.7,20.7,13.1C51.8,32.1,45.8,43.6,35.1,42.8L35.1,42.8z"/>
</g>
</svg>
