<?xml version="1.0" encoding="utf-8"?>
<!-- Generator: Adobe Illustrator 18.1.1, SVG Export Plug-In . SVG Version: 6.00 Build 0)  -->
<svg version="1.1" id="Capa_1" xmlns="http://www.w3.org/2000/svg" xmlns:xlink="http://www.w3.org/1999/xlink" x="0px" y="0px"
	 width="64px" height="64px" viewBox="0 0 64 64" enable-background="new 0 0 64 64" xml:space="preserve">
<g>
	<path fill="#020304" d="M63.5,59L45.4,40.9c-0.1-0.1-0.1-0.1-0.2-0.1c0.3-0.4,0.6-0.8,0.8-1.2c6.8-10.6,3.8-25.8-7.2-33.2
		C28.3-0.7,14.6,1.3,6.6,9.9C-1.8,19-2.2,32.7,5.5,42.1c3.9,4.8,9,7.8,15.1,8.7c7.9,1.3,14.9-0.7,21-6.2c0.1-0.1,0.7-0.6,1.4-1.3
		l18.1,18.1c0.7,0.7,1.8,0.7,2.5,0C64.2,60.8,64.2,59.7,63.5,59z M26.7,48.6C14.4,49.4,3.8,40.5,2.8,28.4C1.9,16.2,11,5.6,23.4,4.7
		c11.9-1,23.1,8.3,23.8,20.6C47.9,36.6,39,47.7,26.7,48.6z"/>
</g>
</svg>
