<?xml version="1.0" encoding="utf-8"?>
<!-- Generator: Adobe Illustrator 18.1.1, SVG Export Plug-In . SVG Version: 6.00 Build 0)  -->
<svg version="1.1" id="Capa_1" xmlns="http://www.w3.org/2000/svg" xmlns:xlink="http://www.w3.org/1999/xlink" x="0px" y="0px"
	 width="64px" height="64px" viewBox="0 0 64 64" enable-background="new 0 0 64 64" xml:space="preserve">
<g>
	<path fill="#010202" d="M35.9,64h-7.7c-1.5,0-2.8-1.2-3-2.7l-0.8-4.8c-1.5-0.5-2.9-1.1-4.3-1.8l-4,2.8c-0.5,0.4-1.1,0.6-1.8,0.6
		c-0.8,0-1.6-0.3-2.1-0.9l-5.5-5.5c-1.1-1.1-1.2-2.8-0.2-4L9.2,44c-0.7-1.4-1.3-2.8-1.8-4.3l-4.8-0.8c-1.5-0.2-2.6-1.4-2.6-3v-7.7
		c0-1.5,1.2-2.8,2.7-3l4.8-0.8c0.5-1.5,1.1-2.9,1.8-4.3l-2.8-4c-0.9-1.1-0.8-2.9,0.2-3.9l5.5-5.5c1.1-1,2.9-1.1,4-0.2L20,9.2
		c1.4-0.7,2.8-1.3,4.3-1.8l0.8-4.8c0.1-1.5,1.4-2.6,3-2.6h7.7c1.5,0,2.8,1.2,3,2.7l0.8,4.8c1.5,0.5,2.9,1.1,4.3,1.8l4-2.9
		c0.5-0.4,1.2-0.6,1.8-0.6c0.8,0,1.5,0.3,2.1,0.9l5.5,5.5c1.1,1.1,1.2,2.8,0.2,4L54.8,20c0.7,1.4,1.3,2.8,1.8,4.3l4.8,0.8
		c1.5,0.1,2.6,1.4,2.6,3v7.7c0,1.5-1.2,2.8-2.7,3l-4.8,0.8c-0.5,1.5-1.1,3-1.8,4.3l2.8,4c0.9,1.1,0.8,2.9-0.3,4l-5.5,5.5
		c-1,1-2.8,1.2-4,0.2L44,54.8c-1.4,0.7-2.8,1.3-4.3,1.8l-0.8,4.8C38.7,62.8,37.4,64,35.9,64L35.9,64z M20.7,51.2
		c0.2,0,0.3,0,0.5,0.1c1.5,0.8,3.1,1.5,4.8,2c0.4,0.1,0.6,0.4,0.7,0.8l0.9,5.1c0,0.5,0.4,0.8,0.8,0.8h7.3c0.4,0,0.8-0.3,0.8-0.7
		l0.9-5.2c0.1-0.4,0.3-0.7,0.7-0.8c1.7-0.5,3.3-1.1,4.8-2c0.3-0.2,0.8-0.2,1.1,0.1l4.2,3c0.4,0.3,0.9,0.3,1.2,0l5.1-5.1
		c0.3-0.3,0.3-0.8,0-1.1l-3.1-4.3c-0.2-0.3-0.3-0.7-0.1-1.1c0.8-1.5,1.5-3.1,2-4.8c0.1-0.4,0.4-0.6,0.8-0.7l5.1-0.9
		c0.5,0,0.8-0.4,0.8-0.8v-7.3c0-0.4-0.3-0.8-0.7-0.8l-5.2-0.9c-0.4-0.1-0.7-0.3-0.8-0.7c-0.5-1.7-1.1-3.3-2-4.8
		c-0.2-0.3-0.2-0.8,0.1-1.1l3-4.2c0.3-0.4,0.3-0.9,0-1.1l-5.1-5.1c-0.3-0.3-0.8-0.3-1.1-0.1l-4.3,3.1c-0.3,0.2-0.7,0.3-1.1,0.1
		c-1.5-0.8-3.1-1.5-4.8-2c-0.4-0.1-0.6-0.4-0.7-0.8l-0.8-5.1c0-0.5-0.4-0.8-0.8-0.8h-7.3c-0.4,0-0.8,0.3-0.8,0.7L26.7,10
		c-0.1,0.4-0.3,0.7-0.7,0.8c-1.7,0.5-3.3,1.1-4.8,2c-0.3,0.2-0.8,0.2-1.1-0.1l-4.2-3c-0.4-0.3-0.9-0.3-1.1,0l-5.1,5.1
		c-0.3,0.3-0.3,0.8-0.1,1.1l3.1,4.3c0.2,0.3,0.2,0.7,0.1,1.1c-0.9,1.5-1.5,3.1-2,4.8c-0.1,0.4-0.4,0.6-0.8,0.7l-5.1,0.9
		C4.3,27.6,4,28,4,28.4v7.3c0,0.4,0.3,0.8,0.7,0.8l5.2,0.9c0.4,0.1,0.7,0.3,0.8,0.7c0.5,1.7,1.1,3.3,2,4.8c0.2,0.3,0.2,0.8-0.1,1
		l-3,4.2c-0.3,0.4-0.3,0.8,0,1.2l5.1,5.1c0.3,0.3,0.8,0.3,1.1,0l4.3-3.1C20.3,51.2,20.5,51.2,20.7,51.2L20.7,51.2z M32,44.7
		c-7,0-12.7-5.7-12.7-12.7c0-7,5.7-12.7,12.7-12.7c7,0,12.7,5.7,12.7,12.7C44.7,39,39,44.7,32,44.7L32,44.7z M32,22.7
		c-5.1,0-9.3,4.2-9.3,9.3s4.2,9.3,9.3,9.3s9.3-4.2,9.3-9.3C41.3,26.9,37.1,22.7,32,22.7L32,22.7z"/>
</g>
</svg>
