<?xml version="1.0" encoding="utf-8"?>
<!-- Generator: Adobe Illustrator 18.1.1, SVG Export Plug-In . SVG Version: 6.00 Build 0)  -->
<svg version="1.1" id="Capa_1" xmlns="http://www.w3.org/2000/svg" xmlns:xlink="http://www.w3.org/1999/xlink" x="0px" y="0px"
	 width="64px" height="64px" viewBox="0 0 64 64" enable-background="new 0 0 64 64" xml:space="preserve">
<g>
	<path fill="#010202" d="M32,35.2c9.1,0,16.6-7.4,16.6-16.6S41.1,2,32,2S15.4,9.5,15.4,18.6S22.9,35.2,32,35.2z"/>
	<path fill="#010202" d="M64,60.1c0-0.1,0-2.9,0-3c0-8.9-7-16.1-15.8-16.5c-0.4,0-0.8,0-1.2,0l0,0H16.3l0,0c-0.2,0-0.3,0-0.5,0
		C7,41,0,48.3,0,57.1c0,0.1,0,2.9,0,3c0,0,0,0,0,0C0,60.2,0,60.3,0,60.4C0,61.3,0.7,62,1.6,62h60.8c0.9,0,1.6-0.7,1.6-1.6
		C64,60.3,64,60.2,64,60.1C64,60.1,64,60.1,64,60.1z"/>
</g>
</svg>
