<?xml version="1.0" encoding="utf-8"?>
<!-- Generator: Adobe Illustrator 18.1.1, SVG Export Plug-In . SVG Version: 6.00 Build 0)  -->
<svg version="1.1" id="Capa_1" xmlns="http://www.w3.org/2000/svg" xmlns:xlink="http://www.w3.org/1999/xlink" x="0px" y="0px"
	 width="64px" height="64px" viewBox="0 0 64 64" enable-background="new 0 0 64 64" xml:space="preserve">
<path fill="#010202" d="M32.6,0h-1.1C14.1,0,0,14.1,0,31.4v1.2C0,49.9,14.1,64,31.4,64h1.2C49.9,64,64,49.9,64,32.6v-1.1
	C64,14.1,49.9,0,32.6,0z M12.9,9.1l-1.1,0.6c0.5,0.1,2.2,0.9,2.3,1.3c0.1,0.1-0.1,0.4-0.3,0.7c-1.8,2.4-4.6,4.6-6,4.9
	c-0.6,0.1-1,0.1-1.3,0.1c0,0,0,0,0,0C8.2,13.8,10.4,11.2,12.9,9.1z M2.3,34c0-0.7-0.1-1.3-0.1-2c0-0.7,0.1-1.4,0.1-2.1
	c1.1,0.3,2.2,0.8,2.3,1L3.8,32c-0.5,0.7-0.5,0.7-1.2,1.6L2.3,34z M32,61.8C17.2,61.8,5,51,2.6,36.9l0.2,0.2l1.6-2
	c0.7-0.9,0.7-0.9,1.3-1.7l0.8-1.2c0.5-0.6,0.6-1.4,0.3-2.1c-0.6-1.6-3.1-2.4-4.3-2.7c0.5-3,1.4-5.9,2.7-8.6C5.5,19,5.9,19,6.5,19
	c0.4,0,1,0,1.7-0.1c2.3-0.4,5.6-3.3,7.5-5.8c0.9-1.2,0.8-2.3,0.6-2.9c-0.4-1.1-1.4-1.7-2.2-2.1c5-3.7,11.1-5.9,17.8-5.9
	c16.5,0,29.8,13.4,29.8,29.8c0,1.7-0.2,3.4-0.5,5c-0.3,0.1-0.9,0.3-1.7,0.6c0,0,0-0.1,0-0.1c-0.1-0.5-0.2-1-0.5-1.6
	c-0.8-2-2.8-2.8-5.2-3.8c-1.7-0.7-7.4-1.9-10.3-0.3c-1,0.6-1.7,1.4-1.9,2.5c-0.3,1.4,0,2.4,0.8,3c1.3,1.1,3.3,0.5,4.9,0
	c-0.1,1-0.8,3-2.5,4.4c-3.5,3-6.2,12.8-5.7,16.7c0,0.1,0,0.1,0,0.2c-0.8-0.1-3-1.1-6.6-3.8c-1-0.8-1.5-4.1-1.9-6.8
	c-0.6-3.9-1.1-7.3-3.1-8.2c-1-0.5-2.2-0.7-3.5-0.9c-3.6-0.6-6.3-1.3-7-4.5c-0.4-1.8-0.2-3.3,0.6-4.5c1.3-2,4-2.6,5.4-2.9
	c2.5-0.4,6.3,1.2,8.5,2.2c1,0.4,1.7,0.8,2.2,0.9c3.3,0.5,6.7-2.2,7.8-3.7c0.2-0.3,0.8-0.8,0.6-1.6c1-0.4,1.8-1.4,2.1-2.4
	c0.5-1.4,0.4-2.6-0.4-3.3c-0.6-0.5-1.7-0.9-3.5,0.1c-2.9,1.5-3.5,2.8-3.9,4c-0.1,0.4-0.2,0.5-0.2,0.5c-0.1,0-0.8-0.1-3-2.7
	c-2.5-3-4.6-2.1-5.9-1.5C26,20.2,26.7,21.9,25,22c-1.2-0.5,0.8-1.4-0.1-2.3c-0.9-0.9,1.3-1.3,2.3-1.3c1.1,0,2.3-0.8,2.5-1.9
	c0.3,0.1,0.8,0.4,1.3,0.9c0.8,0.8,1.6,1.1,2.5,1c1.3-0.1,2.3-1.4,3.1-2.5c1.1-1.6,0.6-2.7,0.3-3.2c-0.5-0.8-1.5-1.1-2.5-1.1
	c0.3-0.3,0.7-0.7,1.3-1.2c1.8-1.6,3.2-2.4,4.3-2.1C40.8,8.8,41.8,9,43.5,9c3,0,6.8-3.7,5.4-3l-2.6-0.6c0,0-1.3,1.5-3.2,1.5
	c-0.7,0-4-2.4-9,1.7c-2.4,2-3.2,3.5-2.6,4.7c0.1,0.3,0.8,1.2,2.3,0.8c0.2-0.1,0.4-0.1,0.5-0.1c0.3,0,0.5,0.1,0.6,0.1
	c0,0.1,0,0.3-0.3,0.6c-1,1.4-1.3,1.5-1.4,1.5c0,0-0.2,0-0.6-0.4c-1.6-1.6-3.5-2.1-4.7-1.3c-0.4,0.3-0.6,0.8-0.6,1.4
	c-0.1,0.1-0.4,0.2-0.8,0.3c-1.2,0.3-1.9,0.3-2.4,0.3c-0.5,0-1.1-0.1-1.6,0.6s-0.1,1.3,0,1.5c0.2,0.4,0.5,0.8,0.9,1.2
	c0,0,0.1,0.1,0.1,0.2c-1,0.4-1.9,0.9-1.9,1.9c0,1.3,1.7,1.7,2.7,2c1.1,0.3,1.9,0.2,2.6-0.2c0.8-0.5,1-1.4,1.1-2c0-0.1,0-0.2,0-0.2
	c0.9-0.3,2.1-0.2,3.3,1.2c2,2.4,3.4,3.5,4.6,3.5c0.7,0,1.3-0.1,1.8-0.6c0.6-0.5,0.8-1.1,1-1.6c0.2-0.6,0.4-1.4,2.8-2.6
	c0.4-0.2,0.6-0.3,0.8-0.3c0,0.5-0.5,1.5-0.8,1.6c-0.4,0-1.4,0-1.8,0.8c-0.3,0.5-0.2,1.1,0,1.5c-0.8,1.7-3.3,3.4-5.3,3
	c-0.3-0.1-1-0.4-1.8-0.7c-2.6-1.2-6.6-2.9-9.9-2.4c-3.2,0.5-5.7,1.9-7,3.9c-1.2,1.8-1.5,3.9-0.9,6.4c1.1,5,5.6,5.8,8.9,6.4
	c1.1,0.2,2.2,0.4,2.9,0.7c0.9,0.4,1.4,4,1.8,6.4c0.5,3.6,1,7,2.8,8.4c4.3,3.2,6.6,4.1,7.9,4.2C36.8,61.5,34.4,61.8,32,61.8z
	 M40.8,60.5c0.4-0.3,1-1,0.8-2.4c-0.4-3.3,2-12.1,4.9-14.6c2.8-2.4,4-6.3,3-8c-0.4-0.8-1.3-1.1-2.2-0.8l-0.4,0.1
	c-1.6,0.6-2.5,0.8-2.8,0.6c0,0-0.1-0.2,0-0.8c0-0.3,0.2-0.6,0.7-0.8c2-1.1,6.7-0.3,8.5,0.4c2.2,0.9,3.3,1.4,3.8,2.5
	c0.2,0.4,0.3,0.8,0.3,1.2c0.2,0.7,0.3,1.5,1.1,2s1.7,0.1,1.9,0c0.1,0,0.2-0.1,0.3-0.1C58.1,49.7,50.5,57.5,40.8,60.5z"/>
</svg>
