<?xml version="1.0" encoding="utf-8"?>
<!-- Generator: Adobe Illustrator 18.1.1, SVG Export Plug-In . SVG Version: 6.00 Build 0)  -->
<svg version="1.1" id="Capa_1" xmlns="http://www.w3.org/2000/svg" xmlns:xlink="http://www.w3.org/1999/xlink" x="0px" y="0px"
	 width="64px" height="64px" viewBox="0 0 64 64" enable-background="new 0 0 64 64" xml:space="preserve">
<g>
	<path fill="#010202" d="M39.3,44.4V52c0,1.6-0.5,2.4-1.4,2.4c-0.5,0-1.1-0.3-1.6-0.8V42.8c0.5-0.5,1.1-0.8,1.6-0.8
		C38.8,42,39.3,42.8,39.3,44.4L39.3,44.4z M51.3,44.5v1.6h-3.2v-1.6c0-1.6,0.5-2.4,1.6-2.4C50.8,42,51.3,42.8,51.3,44.5L51.3,44.5z
		 M16.8,36.7h3.8v-3.4H9.5v3.4h3.8V57h3.6V36.7L16.8,36.7z M27.1,57h3.2V39.4h-3.2v13.5c-0.7,1-1.4,1.5-2,1.5
		c-0.4,0-0.7-0.3-0.8-0.8c0-0.1,0-0.5,0-1.3v-13h-3.2v14c0,1.2,0.1,2,0.3,2.6c0.3,0.9,1,1.3,2.1,1.3c1.1,0,2.4-0.7,3.6-2.2L27.1,57
		L27.1,57z M42.4,51.7v-7c0-1.7-0.1-2.9-0.3-3.5c-0.4-1.3-1.3-2-2.5-2c-1.2,0-2.3,0.7-3.3,1.9v-7.8h-3.2V57h3.2v-1.7
		c1.1,1.3,2.2,2,3.3,2c1.3,0,2.1-0.7,2.5-2C42.3,54.6,42.4,53.5,42.4,51.7L42.4,51.7z M54.5,51.4v-0.5h-3.3c0,1.2,0,1.9-0.1,2.2
		c-0.2,0.9-0.6,1.3-1.4,1.3c-1.1,0-1.6-0.8-1.6-2.5v-3.1h6.4v-3.7c0-1.9-0.3-3.3-1-4.2c-0.9-1.2-2.2-1.8-3.8-1.8
		c-1.6,0-2.9,0.6-3.8,1.8c-0.7,0.9-1,2.3-1,4.2v6.2c0,1.9,0.3,3.3,1,4.1c0.9,1.2,2.2,1.8,3.9,1.8c1.7,0,3-0.6,3.9-1.9
		c0.4-0.7,0.7-1.3,0.8-1.9C54.5,53.2,54.5,52.5,54.5,51.4L54.5,51.4L54.5,51.4z M32.8,18.8v-7.5c0-1.6-0.5-2.5-1.5-2.5
		s-1.5,0.8-1.5,2.5v7.5c0,1.7,0.5,2.5,1.5,2.5C32.3,21.3,32.8,20.4,32.8,18.8z M58.5,45.6c0,5.6-0.3,9.7-0.9,12.5
		c-0.3,1.4-1,2.6-2.1,3.5c-1,1-2.3,1.5-3.6,1.6C47.5,63.8,40.8,64,32,64s-15.4-0.3-19.8-0.8c-1.4-0.1-2.6-0.7-3.7-1.6
		s-1.7-2.1-2.1-3.5c-0.6-2.7-0.9-6.8-0.9-12.5c0-5.6,0.3-9.7,0.9-12.5c0.3-1.4,1-2.6,2.1-3.5s2.3-1.5,3.7-1.7
		c4.4-0.5,10.9-0.7,19.8-0.7s15.4,0.2,19.8,0.7c1.4,0.2,2.6,0.7,3.7,1.7s1.7,2.1,2,3.5C58.2,35.7,58.5,39.9,58.5,45.6z M22.8,0h3.6
		l-4.3,14.3v9.7h-3.6v-9.7c-0.3-1.8-1.1-4.3-2.2-7.6C15.5,4.2,14.7,2,14.1,0h3.8l2.5,9.4L22.8,0z M36,11.9v6.3c0,1.9-0.3,3.3-1,4.2
		c-0.9,1.2-2.2,1.8-3.8,1.8c-1.6,0-2.9-0.6-3.8-1.8c-0.7-0.9-1-2.3-1-4.2v-6.3c0-1.9,0.3-3.3,1-4.2c0.9-1.2,2.1-1.8,3.8-1.8
		c1.6,0,2.9,0.6,3.8,1.8C35.7,8.6,36,10,36,11.9z M48,6.1v17.8h-3.3v-2c-1.3,1.5-2.5,2.2-3.7,2.2c-1.1,0-1.8-0.4-2.1-1.3
		c-0.2-0.6-0.3-1.5-0.3-2.7V6.1h3.3v13.1c0,0.8,0,1.2,0,1.3c0.1,0.5,0.3,0.8,0.8,0.8c0.7,0,1.3-0.5,2-1.5V6.1H48z"/>
</g>
</svg>
